<svg width="671.057568359375px" height="138.830029296875px" xmlns="http://www.w3.org/2000/svg" viewBox="-85.52878417968748 5.584985351562494 671.057568359375 138.830029296875" style="background: rgba(0, 0, 0, 0);" preserveAspectRatio="xMidYMid"><defs><filter id="editing-extrusion" x="-100%" y="-100%" width="300%" height="300%"><feFlood result="color1" flood-color="rgba(74.11764705882354%,74.11764705882354%,74.11764705882354%,0)"></feFlood><feConvolveMatrix order="16,16" divisor="1" kernelMatrix="1 0 0 0 0 0 0 0 0 0 0 0 0 0 0 0 0 1 0 0 0 0 0 0 0 0 0 0 0 0 0 0 0 0 1 0 0 0 0 0 0 0 0 0 0 0 0 0 0 0 0 1 0 0 0 0 0 0 0 0 0 0 0 0 0 0 0 0 1 0 0 0 0 0 0 0 0 0 0 0 0 0 0 0 0 1 0 0 0 0 0 0 0 0 0 0 0 0 0 0 0 0 1 0 0 0 0 0 0 0 0 0 0 0 0 0 0 0 0 1 0 0 0 0 0 0 0 0 0 0 0 0 0 0 0 0 1 0 0 0 0 0 0 0 0 0 0 0 0 0 0 0 0 1 0 0 0 0 0 0 0 0 0 0 0 0 0 0 0 0 1 0 0 0 0 0 0 0 0 0 0 0 0 0 0 0 0 1 0 0 0 0 0 0 0 0 0 0 0 0 0 0 0 0 1 0 0 0 0 0 0 0 0 0 0 0 0 0 0 0 0 1 0 0 0 0 0 0 0 0 0 0 0 0 0 0 0 0 1 0 0 0 0 0 0 0 0 0 0 0 0 0 0 0 0 1" in="SourceAlpha" result="extrude"></feConvolveMatrix><feComposite in="color1" in2="extrude" result="comp-extrude" operator="in"></feComposite><feOffset dx="8" dy="8" in="comp-extrude" result="offset-extrude"></feOffset><feMerge><feMergeNode in="offset-extrude"></feMergeNode><feMergeNode in="SourceGraphic"></feMergeNode></feMerge></filter></defs><g filter="url(#editing-extrusion)"><g transform="translate(10.449995756149292, 100.79500007629395)"><path d="M25.60 0L1.28 0L1.28-10.50L4.48-10.50L4.48-39.30L1.28-39.30L1.28-49.79L25.60-49.79L25.60-39.30L22.40-39.30L22.40-10.50L25.60-10.50L25.60 0ZM67.71-10.50L70.53-10.50L70.53 0L50.30 0L50.30-10.50L52.99-10.50L52.99-20.99L52.99-20.99Q52.99-23.10 52.10-24.10L52.10-24.10L52.10-24.10Q51.20-25.09 49.41-25.09L49.41-25.09L49.41-25.09Q45.57-25.09 45.57-20.99L45.57-20.99L45.57-10.50L48.26-10.50L48.26 0L28.03 0L28.03-10.50L30.85-10.50L30.85-25.09L28.03-25.09L28.03-35.58L45.57-35.58L45.57-30.59L45.57-30.59Q50.18-36.48 57.09-36.48L57.09-36.48L57.09-36.48Q62.40-36.48 65.06-33.15L65.06-33.15L65.06-33.15Q67.71-29.82 67.71-24L67.71-24L67.71-10.50ZM72.58 0L72.58-10.50L75.39-10.50L75.39-25.09L72.58-25.09L72.58-35.58L75.52-35.58L75.52-35.58Q75.52-43.39 79.33-47.04L79.33-47.04L79.33-47.04Q83.14-50.69 90.43-50.69L90.43-50.69L90.43-50.69Q93.95-50.69 96.74-50.18L96.74-50.18L96.74-50.18Q99.52-49.66 100.80-49.02L100.80-49.02L100.80-38.98L100.80-38.98Q97.41-39.30 94.53-39.30L94.53-39.30L94.53-39.30Q92.03-39.30 91.07-38.46L91.07-38.46L91.07-38.46Q90.11-37.63 90.11-35.58L90.11-35.58L95.10-35.58L95.10-25.09L90.11-25.09L90.11-10.50L95.10-10.50L95.10 0L72.58 0ZM116.22 0.90L116.22 0.90Q107.14 0.90 102.02-3.87L102.02-3.87L102.02-3.87Q96.90-8.64 96.90-17.79L96.90-17.79L96.90-17.79Q96.90-26.94 102.02-31.71L102.02-31.71L102.02-31.71Q107.14-36.48 116.22-36.48L116.22-36.48L116.22-36.48Q125.44-36.48 130.50-31.65L130.50-31.65L130.50-31.65Q135.55-26.82 135.55-17.79L135.55-17.79L135.55-17.79Q135.55-8.64 130.43-3.87L130.43-3.87L130.43-3.87Q125.31 0.90 116.22 0.90L116.22 0.90ZM116.22-10.50L116.22-10.50Q118.08-10.50 119.01-11.49L119.01-11.49L119.01-11.49Q119.94-12.48 119.94-14.59L119.94-14.59L119.94-20.99L119.94-20.99Q119.94-23.10 119.01-24.10L119.01-24.10L119.01-24.10Q118.08-25.09 116.22-25.09L116.22-25.09L116.22-25.09Q114.37-25.09 113.44-24.10L113.44-24.10L113.44-24.10Q112.51-23.10 112.51-20.99L112.51-20.99L112.51-14.59L112.51-14.59Q112.51-12.48 113.44-11.49L113.44-11.49L113.44-11.49Q114.37-10.50 116.22-10.50L116.22-10.50ZM164.93-36.48L164.93-36.48Q166.21-36.48 167.36-36.22L167.36-36.22L167.36-36.22Q168.51-35.97 169.28-35.58L169.28-35.58L169.28-23.36L169.28-23.36Q166.66-24.45 163.65-24.45L163.65-24.45L163.65-24.45Q159.62-24.45 157.44-22.34L157.44-22.34L157.44-22.34Q155.26-20.22 155.26-16.06L155.26-16.06L155.26-10.50L161.02-10.50L161.02 0L137.73 0L137.73-10.50L140.54-10.50L140.54-25.09L137.73-25.09L137.73-35.58L155.26-35.58L155.26-30.91L155.26-30.91Q157.06-33.60 159.36-35.04L159.36-35.04L159.36-35.04Q161.66-36.48 164.93-36.48L164.93-36.48ZM233.15-10.50L235.97-10.50L235.97 0L215.74 0L215.74-10.50L218.43-10.50L218.43-20.99L218.43-20.99Q218.43-23.10 217.54-24.10L217.54-24.10L217.54-24.10Q216.64-25.09 214.85-25.09L214.85-25.09L214.85-25.09Q211.01-25.09 211.01-20.99L211.01-20.99L211.01-10.50L213.70-10.50L213.70 0L193.60 0L193.60-10.50L196.29-10.50L196.29-20.99L196.29-20.99Q196.29-23.10 195.39-24.10L195.39-24.10L195.39-24.10Q194.50-25.09 192.70-25.09L192.70-25.09L192.70-25.09Q188.86-25.09 188.86-20.99L188.86-20.99L188.86-10.50L191.55-10.50L191.55 0L171.33 0L171.33-10.50L174.14-10.50L174.14-25.09L171.33-25.09L171.33-35.58L188.86-35.58L188.86-30.59L188.86-30.59Q193.47-36.48 200.38-36.48L200.38-36.48L200.38-36.48Q204.29-36.48 206.75-34.66L206.75-34.66L206.75-34.66Q209.22-32.83 210.24-29.50L210.24-29.50L210.24-29.50Q212.54-32.83 215.52-34.62L215.52-34.62L215.52-34.62Q218.50-36.42 222.53-36.42L222.53-36.42L222.53-36.42Q227.84-36.42 230.50-33.09L230.50-33.09L230.50-33.09Q233.15-29.76 233.15-23.94L233.15-23.94L233.15-10.50ZM272.51-10.50L275.33-10.50L275.33 0L258.43 0L258.43-4.35L258.43-4.35Q257.02-2.30 254.50-0.70L254.50-0.70L254.50-0.70Q251.97 0.90 248.32 0.90L248.32 0.90L248.32 0.90Q243.52 0.90 240.77-1.66L240.77-1.66L240.77-1.66Q238.02-4.22 238.02-8.90L238.02-8.90L238.02-8.90Q238.02-20.99 258.56-21.31L258.56-21.31L258.56-21.31Q258.37-23.49 256.90-24.29L256.90-24.29L256.90-24.29Q255.42-25.09 251.90-25.09L251.90-25.09L251.90-25.09Q249.02-25.09 245.73-24.48L245.73-24.48L245.73-24.48Q242.43-23.87 239.68-22.85L239.68-22.85L239.68-34.62L239.68-34.62Q243.07-35.46 247.04-35.97L247.04-35.97L247.04-35.97Q251.01-36.48 254.78-36.48L254.78-36.48L254.78-36.48Q264.32-36.48 268.42-33.02L268.42-33.02L268.42-33.02Q272.51-29.57 272.51-22.34L272.51-22.34L272.51-10.50ZM258.43-14.59L258.43-14.98L258.43-14.98Q255.55-14.98 253.98-14.21L253.98-14.21L253.98-14.21Q252.42-13.44 252.42-11.65L252.42-11.65L252.42-11.65Q252.42-10.56 253.09-9.89L253.09-9.89L253.09-9.89Q253.76-9.22 254.98-9.22L254.98-9.22L254.98-9.22Q256.64-9.22 257.54-10.62L257.54-10.62L257.54-10.62Q258.43-12.03 258.43-14.59L258.43-14.59ZM323.58-39.30L323.58-49.79L344.96-49.79L344.96-39.30L342.40-39.30L330.94 0L310.21 0L298.75-39.30L296.19-39.30L296.19-49.79L320.77-49.79L320.77-39.30L317.44-39.30L321.86-17.86L322.50-17.86L326.91-39.30L323.58-39.30ZM363.01-39.10L349.95-39.10L349.95-49.79L363.01-49.79L363.01-39.10ZM367.23 0L346.88 0L346.88-10.50L349.70-10.50L349.70-25.09L346.88-25.09L346.88-35.58L364.42-35.58L364.42-10.50L367.23-10.50L367.23 0ZM396.35-36.48L396.35-36.48Q397.63-36.48 398.78-36.22L398.78-36.22L398.78-36.22Q399.94-35.97 400.70-35.58L400.70-35.58L400.70-23.36L400.70-23.36Q398.08-24.45 395.07-24.45L395.07-24.45L395.07-24.45Q391.04-24.45 388.86-22.34L388.86-22.34L388.86-22.34Q386.69-20.22 386.69-16.06L386.69-16.06L386.69-10.50L392.45-10.50L392.45 0L369.15 0L369.15-10.50L371.97-10.50L371.97-25.09L369.15-25.09L369.15-35.58L386.69-35.58L386.69-30.91L386.69-30.91Q388.48-33.60 390.78-35.04L390.78-35.04L390.78-35.04Q393.09-36.48 396.35-36.48L396.35-36.48ZM442.05-10.50L444.86-10.50L444.86 0L427.33 0L427.33-4.99L427.33-4.99Q422.72 0.90 415.81 0.90L415.81 0.90L415.81 0.90Q410.50 0.90 407.84-2.43L407.84-2.43L407.84-2.43Q405.18-5.76 405.18-11.58L405.18-11.58L405.18-25.09L402.37-25.09L402.37-35.58L419.90-35.58L419.90-14.59L419.90-14.59Q419.90-12.48 420.83-11.49L420.83-11.49L420.83-11.49Q421.76-10.50 423.62-10.50L423.62-10.50L423.62-10.50Q425.47-10.50 426.40-11.49L426.40-11.49L426.40-11.49Q427.33-12.48 427.33-14.59L427.33-14.59L427.33-25.09L423.87-25.09L423.87-35.58L442.05-35.58L442.05-10.50ZM462.21 0.90L462.21 0.90Q454.14 0.90 446.66-1.66L446.66-1.66L446.66-11.14L457.02-11.14L457.02-10.50L457.02-10.50Q457.02-7.42 460.93-7.42L460.93-7.42L460.93-7.42Q464.38-7.42 464.38-9.79L464.38-9.79L464.38-9.79Q464.38-11.07 463.39-11.71L463.39-11.71L463.39-11.71Q462.40-12.35 459.90-12.80L459.90-12.80L456.70-13.38L456.70-13.38Q446.66-15.17 446.66-24.77L446.66-24.77L446.66-24.77Q446.66-30.34 450.88-33.41L450.88-33.41L450.88-33.41Q455.10-36.48 462.27-36.48L462.27-36.48L462.27-36.48Q470.27-36.48 475.78-33.79L475.78-33.79L475.78-24.90L466.05-24.90L466.05-25.54L466.05-25.54Q466.05-26.82 465.18-27.49L465.18-27.49L465.18-27.49Q464.32-28.16 462.66-28.16L462.66-28.16L462.66-28.16Q459.46-28.16 459.46-26.11L459.46-26.11L459.46-26.11Q459.46-25.02 460.35-24.45L460.35-24.45L460.35-24.45Q461.25-23.87 463.62-23.36L463.62-23.36L467.26-22.66L467.26-22.66Q472.96-21.57 475.39-18.62L475.39-18.62L475.39-18.62Q477.82-15.68 477.82-11.07L477.82-11.07L477.82-11.07Q477.82-5.25 473.76-2.18L473.76-2.18L473.76-2.18Q469.70 0.90 462.21 0.90L462.21 0.90Z" fill="#000000"></path></g></g><style>text {
  font-size: 64px;
  font-family: Arial Black;
  dominant-baseline: central;
  text-anchor: middle;
}</style></svg>